<mxfile host="65bd71144e" pages="2">
    <diagram id="j1ny3Ss1Q0sh5PDAtYMi" name="flow">
        <mxGraphModel dx="848" dy="727" grid="1" gridSize="10" guides="1" tooltips="1" connect="1" arrows="1" fold="1" page="1" pageScale="1" pageWidth="1654" pageHeight="1169" math="0" shadow="1">
            <root>
                <mxCell id="9WSpmLzHRRsmoLOSvqGu-0"/>
                <mxCell id="9WSpmLzHRRsmoLOSvqGu-1" parent="9WSpmLzHRRsmoLOSvqGu-0"/>
                <mxCell id="41" value="" style="edgeStyle=orthogonalEdgeStyle;rounded=0;orthogonalLoop=1;jettySize=auto;html=1;" parent="9WSpmLzHRRsmoLOSvqGu-1" source="3" target="40" edge="1">
                    <mxGeometry relative="1" as="geometry"/>
                </mxCell>
                <mxCell id="3" value="add to display" style="rounded=1;whiteSpace=wrap;html=1;fontFamily=Inter;fontSource=https%3A%2F%2Ffonts.googleapis.com%2Fcss%3Ffamily%3DInter;fillColor=#dae8fc;strokeColor=#6c8ebf;" parent="9WSpmLzHRRsmoLOSvqGu-1" vertex="1">
                    <mxGeometry x="780" y="125" width="160" height="30" as="geometry"/>
                </mxCell>
                <mxCell id="43" value="" style="edgeStyle=orthogonalEdgeStyle;rounded=0;orthogonalLoop=1;jettySize=auto;html=1;" parent="9WSpmLzHRRsmoLOSvqGu-1" source="40" target="42" edge="1">
                    <mxGeometry relative="1" as="geometry"/>
                </mxCell>
                <mxCell id="49" value="FALSE" style="edgeLabel;html=1;align=center;verticalAlign=middle;resizable=0;points=[];" parent="43" vertex="1" connectable="0">
                    <mxGeometry x="-0.4858" y="-2" relative="1" as="geometry">
                        <mxPoint x="1.7399999999999984" y="-2" as="offset"/>
                    </mxGeometry>
                </mxCell>
                <mxCell id="59" value="" style="edgeStyle=orthogonalEdgeStyle;rounded=0;orthogonalLoop=1;jettySize=auto;html=1;entryX=0.5;entryY=0;entryDx=0;entryDy=0;" parent="9WSpmLzHRRsmoLOSvqGu-1" source="40" target="113" edge="1">
                    <mxGeometry relative="1" as="geometry">
                        <mxPoint x="650" y="385" as="targetPoint"/>
                    </mxGeometry>
                </mxCell>
                <mxCell id="60" value="TRUE" style="edgeLabel;html=1;align=center;verticalAlign=middle;resizable=0;points=[];" parent="59" vertex="1" connectable="0">
                    <mxGeometry x="-0.4458" y="1" relative="1" as="geometry">
                        <mxPoint x="0.87" y="-1" as="offset"/>
                    </mxGeometry>
                </mxCell>
                <mxCell id="40" value="monitor repeats?" style="rhombus;whiteSpace=wrap;html=1;rounded=1;fontFamily=Inter;fontSource=https%3A%2F%2Ffonts.googleapis.com%2Fcss%3Ffamily%3DInter;strokeColor=#6c8ebf;fillColor=#dae8fc;" parent="9WSpmLzHRRsmoLOSvqGu-1" vertex="1">
                    <mxGeometry x="820" y="195" width="80" height="80" as="geometry"/>
                </mxCell>
                <mxCell id="53" value="" style="edgeStyle=orthogonalEdgeStyle;rounded=0;orthogonalLoop=1;jettySize=auto;html=1;" parent="9WSpmLzHRRsmoLOSvqGu-1" source="42" target="52" edge="1">
                    <mxGeometry relative="1" as="geometry"/>
                </mxCell>
                <mxCell id="42" value="add_key_flag" style="whiteSpace=wrap;html=1;rounded=1;fontFamily=Inter;fontSource=https%3A%2F%2Ffonts.googleapis.com%2Fcss%3Ffamily%3DInter;strokeColor=#6c8ebf;fillColor=#dae8fc;" parent="9WSpmLzHRRsmoLOSvqGu-1" vertex="1">
                    <mxGeometry x="940" y="285" width="120" height="35" as="geometry"/>
                </mxCell>
                <mxCell id="52" value="remove_key_flag" style="whiteSpace=wrap;html=1;rounded=1;fontFamily=Inter;fontSource=https%3A%2F%2Ffonts.googleapis.com%2Fcss%3Ffamily%3DInter;strokeColor=#6c8ebf;fillColor=#dae8fc;" parent="9WSpmLzHRRsmoLOSvqGu-1" vertex="1">
                    <mxGeometry x="940" y="350" width="120" height="35" as="geometry"/>
                </mxCell>
                <mxCell id="56" style="edgeStyle=orthogonalEdgeStyle;rounded=0;orthogonalLoop=1;jettySize=auto;html=1;" parent="9WSpmLzHRRsmoLOSvqGu-1" source="54" target="3" edge="1">
                    <mxGeometry relative="1" as="geometry"/>
                </mxCell>
                <mxCell id="54" value="key detect" style="rounded=1;whiteSpace=wrap;html=1;fontFamily=Inter;fontSource=https%3A%2F%2Ffonts.googleapis.com%2Fcss%3Ffamily%3DInter;fillColor=#dae8fc;strokeColor=#6c8ebf;" parent="9WSpmLzHRRsmoLOSvqGu-1" vertex="1">
                    <mxGeometry x="780" y="55" width="160" height="30" as="geometry"/>
                </mxCell>
                <mxCell id="63" value="" style="edgeStyle=orthogonalEdgeStyle;rounded=0;orthogonalLoop=1;jettySize=auto;html=1;" parent="9WSpmLzHRRsmoLOSvqGu-1" source="58" target="62" edge="1">
                    <mxGeometry relative="1" as="geometry"/>
                </mxCell>
                <mxCell id="69" value="TRUE" style="edgeLabel;html=1;align=center;verticalAlign=middle;resizable=0;points=[];" parent="63" vertex="1" connectable="0">
                    <mxGeometry x="-0.6042" relative="1" as="geometry">
                        <mxPoint as="offset"/>
                    </mxGeometry>
                </mxCell>
                <mxCell id="68" value="" style="edgeStyle=orthogonalEdgeStyle;rounded=0;orthogonalLoop=1;jettySize=auto;html=1;" parent="9WSpmLzHRRsmoLOSvqGu-1" source="58" target="97" edge="1">
                    <mxGeometry relative="1" as="geometry">
                        <mxPoint x="460" y="565" as="targetPoint"/>
                    </mxGeometry>
                </mxCell>
                <mxCell id="70" value="FALSE" style="edgeLabel;html=1;align=center;verticalAlign=middle;resizable=0;points=[];" parent="68" vertex="1" connectable="0">
                    <mxGeometry x="-0.7721" relative="1" as="geometry">
                        <mxPoint x="13.48" as="offset"/>
                    </mxGeometry>
                </mxCell>
                <mxCell id="58" value="key = last_key?" style="rhombus;whiteSpace=wrap;html=1;rounded=1;fontFamily=Inter;fontSource=https%3A%2F%2Ffonts.googleapis.com%2Fcss%3Ffamily%3DInter;strokeColor=#6c8ebf;fillColor=#dae8fc;" parent="9WSpmLzHRRsmoLOSvqGu-1" vertex="1">
                    <mxGeometry x="300" y="460" width="80" height="80" as="geometry"/>
                </mxCell>
                <mxCell id="78" style="edgeStyle=orthogonalEdgeStyle;rounded=0;orthogonalLoop=1;jettySize=auto;html=1;entryX=0.5;entryY=0;entryDx=0;entryDy=0;" parent="9WSpmLzHRRsmoLOSvqGu-1" source="62" target="76" edge="1">
                    <mxGeometry relative="1" as="geometry"/>
                </mxCell>
                <mxCell id="81" value="TRUE" style="edgeLabel;html=1;align=center;verticalAlign=middle;resizable=0;points=[];" parent="78" vertex="1" connectable="0">
                    <mxGeometry x="-0.4971" y="-2" relative="1" as="geometry">
                        <mxPoint x="-22" y="2" as="offset"/>
                    </mxGeometry>
                </mxCell>
                <mxCell id="83" value="" style="edgeStyle=orthogonalEdgeStyle;rounded=0;orthogonalLoop=1;jettySize=auto;html=1;" parent="9WSpmLzHRRsmoLOSvqGu-1" source="62" target="82" edge="1">
                    <mxGeometry relative="1" as="geometry"/>
                </mxCell>
                <mxCell id="111" value="FALSE" style="edgeLabel;html=1;align=center;verticalAlign=middle;resizable=0;points=[];" parent="83" vertex="1" connectable="0">
                    <mxGeometry x="-0.5462" relative="1" as="geometry">
                        <mxPoint as="offset"/>
                    </mxGeometry>
                </mxCell>
                <mxCell id="62" value="key_grid_children_count = 0?" style="rhombus;whiteSpace=wrap;html=1;rounded=1;fontFamily=Inter;fontSource=https%3A%2F%2Ffonts.googleapis.com%2Fcss%3Ffamily%3DInter;strokeColor=#6c8ebf;fillColor=#dae8fc;" parent="9WSpmLzHRRsmoLOSvqGu-1" vertex="1">
                    <mxGeometry x="180" y="665" width="80" height="80" as="geometry"/>
                </mxCell>
                <mxCell id="73" style="edgeStyle=orthogonalEdgeStyle;rounded=0;orthogonalLoop=1;jettySize=auto;html=1;entryX=0.5;entryY=0;entryDx=0;entryDy=0;" parent="9WSpmLzHRRsmoLOSvqGu-1" edge="1">
                    <mxGeometry relative="1" as="geometry">
                        <mxPoint x="510.04347826086973" y="575" as="sourcePoint"/>
                    </mxGeometry>
                </mxCell>
                <mxCell id="76" value="add_key_flag" style="whiteSpace=wrap;html=1;rounded=1;fontFamily=Inter;fontSource=https%3A%2F%2Ffonts.googleapis.com%2Fcss%3Ffamily%3DInter;strokeColor=#6c8ebf;fillColor=#dae8fc;" parent="9WSpmLzHRRsmoLOSvqGu-1" vertex="1">
                    <mxGeometry x="40" y="777.5" width="120" height="35" as="geometry"/>
                </mxCell>
                <mxCell id="90" style="edgeStyle=orthogonalEdgeStyle;rounded=0;orthogonalLoop=1;jettySize=auto;html=1;exitX=0;exitY=0.5;exitDx=0;exitDy=0;" parent="9WSpmLzHRRsmoLOSvqGu-1" source="82" target="89" edge="1">
                    <mxGeometry relative="1" as="geometry"/>
                </mxCell>
                <mxCell id="93" value="TRUE" style="edgeLabel;html=1;align=center;verticalAlign=middle;resizable=0;points=[];" parent="90" vertex="1" connectable="0">
                    <mxGeometry x="-0.3873" y="1" relative="1" as="geometry">
                        <mxPoint x="2.169999999999998" y="-0.99" as="offset"/>
                    </mxGeometry>
                </mxCell>
                <mxCell id="95" style="edgeStyle=orthogonalEdgeStyle;rounded=0;orthogonalLoop=1;jettySize=auto;html=1;exitX=1;exitY=0.5;exitDx=0;exitDy=0;" parent="9WSpmLzHRRsmoLOSvqGu-1" source="82" target="94" edge="1">
                    <mxGeometry relative="1" as="geometry"/>
                </mxCell>
                <mxCell id="96" value="FALSE" style="edgeLabel;html=1;align=center;verticalAlign=middle;resizable=0;points=[];" parent="95" vertex="1" connectable="0">
                    <mxGeometry x="-0.3897" y="1" relative="1" as="geometry">
                        <mxPoint x="-2.17" y="1.01" as="offset"/>
                    </mxGeometry>
                </mxCell>
                <mxCell id="82" value="repeat_counter = 0" style="rhombus;whiteSpace=wrap;html=1;rounded=1;fontFamily=Inter;fontSource=https%3A%2F%2Ffonts.googleapis.com%2Fcss%3Ffamily%3DInter;strokeColor=#6c8ebf;fillColor=#dae8fc;" parent="9WSpmLzHRRsmoLOSvqGu-1" vertex="1">
                    <mxGeometry x="300" y="885" width="80" height="80" as="geometry"/>
                </mxCell>
                <mxCell id="92" style="edgeStyle=orthogonalEdgeStyle;rounded=0;orthogonalLoop=1;jettySize=auto;html=1;" parent="9WSpmLzHRRsmoLOSvqGu-1" source="89" target="91" edge="1">
                    <mxGeometry relative="1" as="geometry"/>
                </mxCell>
                <mxCell id="89" value="add counter overlay" style="whiteSpace=wrap;html=1;rounded=1;fontFamily=Inter;fontSource=https%3A%2F%2Ffonts.googleapis.com%2Fcss%3Ffamily%3DInter;strokeColor=#6c8ebf;fillColor=#dae8fc;" parent="9WSpmLzHRRsmoLOSvqGu-1" vertex="1">
                    <mxGeometry x="160" y="1015" width="120" height="35" as="geometry"/>
                </mxCell>
                <mxCell id="91" value="add_key_flag" style="whiteSpace=wrap;html=1;rounded=1;fontFamily=Inter;fontSource=https%3A%2F%2Ffonts.googleapis.com%2Fcss%3Ffamily%3DInter;strokeColor=#6c8ebf;fillColor=#dae8fc;" parent="9WSpmLzHRRsmoLOSvqGu-1" vertex="1">
                    <mxGeometry x="160" y="1085" width="120" height="35" as="geometry"/>
                </mxCell>
                <mxCell id="94" value="counter += 1" style="whiteSpace=wrap;html=1;rounded=1;fontFamily=Inter;fontSource=https%3A%2F%2Ffonts.googleapis.com%2Fcss%3Ffamily%3DInter;strokeColor=#6c8ebf;fillColor=#dae8fc;" parent="9WSpmLzHRRsmoLOSvqGu-1" vertex="1">
                    <mxGeometry x="400" y="1015" width="120" height="35" as="geometry"/>
                </mxCell>
                <mxCell id="100" style="edgeStyle=orthogonalEdgeStyle;rounded=0;orthogonalLoop=1;jettySize=auto;html=1;" parent="9WSpmLzHRRsmoLOSvqGu-1" source="97" target="99" edge="1">
                    <mxGeometry relative="1" as="geometry"/>
                </mxCell>
                <mxCell id="102" value="FALSE" style="edgeLabel;html=1;align=center;verticalAlign=middle;resizable=0;points=[];" parent="100" vertex="1" connectable="0">
                    <mxGeometry x="-0.6832" y="-1" relative="1" as="geometry">
                        <mxPoint x="17.39" y="-1" as="offset"/>
                    </mxGeometry>
                </mxCell>
                <mxCell id="105" style="edgeStyle=orthogonalEdgeStyle;rounded=0;orthogonalLoop=1;jettySize=auto;html=1;" parent="9WSpmLzHRRsmoLOSvqGu-1" source="97" target="104" edge="1">
                    <mxGeometry relative="1" as="geometry"/>
                </mxCell>
                <mxCell id="106" value="TRUE" style="edgeLabel;html=1;align=center;verticalAlign=middle;resizable=0;points=[];" parent="105" vertex="1" connectable="0">
                    <mxGeometry x="-0.2709" y="-1" relative="1" as="geometry">
                        <mxPoint as="offset"/>
                    </mxGeometry>
                </mxCell>
                <mxCell id="97" value="last_key repeat counter &amp;gt; 1?" style="rhombus;whiteSpace=wrap;html=1;rounded=1;fontFamily=Inter;fontSource=https%3A%2F%2Ffonts.googleapis.com%2Fcss%3Ffamily%3DInter;strokeColor=#6c8ebf;fillColor=#dae8fc;" parent="9WSpmLzHRRsmoLOSvqGu-1" vertex="1">
                    <mxGeometry x="560" y="565" width="80" height="80" as="geometry"/>
                </mxCell>
                <mxCell id="98" value="remove_key_flag" style="whiteSpace=wrap;html=1;rounded=1;fontFamily=Inter;fontSource=https%3A%2F%2Ffonts.googleapis.com%2Fcss%3Ffamily%3DInter;strokeColor=#6c8ebf;fillColor=#dae8fc;" parent="9WSpmLzHRRsmoLOSvqGu-1" vertex="1">
                    <mxGeometry x="660" y="730" width="120" height="35" as="geometry"/>
                </mxCell>
                <mxCell id="101" style="edgeStyle=orthogonalEdgeStyle;rounded=0;orthogonalLoop=1;jettySize=auto;html=1;" parent="9WSpmLzHRRsmoLOSvqGu-1" source="99" target="98" edge="1">
                    <mxGeometry relative="1" as="geometry"/>
                </mxCell>
                <mxCell id="99" value="add_key_flag" style="whiteSpace=wrap;html=1;rounded=1;fontFamily=Inter;fontSource=https%3A%2F%2Ffonts.googleapis.com%2Fcss%3Ffamily%3DInter;strokeColor=#6c8ebf;fillColor=#dae8fc;" parent="9WSpmLzHRRsmoLOSvqGu-1" vertex="1">
                    <mxGeometry x="660" y="665" width="120" height="35" as="geometry"/>
                </mxCell>
                <mxCell id="109" style="edgeStyle=orthogonalEdgeStyle;rounded=0;orthogonalLoop=1;jettySize=auto;html=1;entryX=0.5;entryY=0;entryDx=0;entryDy=0;" parent="9WSpmLzHRRsmoLOSvqGu-1" source="104" target="108" edge="1">
                    <mxGeometry relative="1" as="geometry"/>
                </mxCell>
                <mxCell id="104" value="remove_key_grid_child_flag" style="whiteSpace=wrap;html=1;rounded=1;fontFamily=Inter;fontSource=https%3A%2F%2Ffonts.googleapis.com%2Fcss%3Ffamily%3DInter;strokeColor=#6c8ebf;fillColor=#dae8fc;" parent="9WSpmLzHRRsmoLOSvqGu-1" vertex="1">
                    <mxGeometry x="430" y="665" width="120" height="35" as="geometry"/>
                </mxCell>
                <mxCell id="107" value="remove_key_flag" style="whiteSpace=wrap;html=1;rounded=1;fontFamily=Inter;fontSource=https%3A%2F%2Ffonts.googleapis.com%2Fcss%3Ffamily%3DInter;strokeColor=#6c8ebf;fillColor=#dae8fc;" parent="9WSpmLzHRRsmoLOSvqGu-1" vertex="1">
                    <mxGeometry x="430" y="795" width="120" height="35" as="geometry"/>
                </mxCell>
                <mxCell id="110" style="edgeStyle=orthogonalEdgeStyle;rounded=0;orthogonalLoop=1;jettySize=auto;html=1;entryX=0.5;entryY=0;entryDx=0;entryDy=0;" parent="9WSpmLzHRRsmoLOSvqGu-1" source="108" target="107" edge="1">
                    <mxGeometry relative="1" as="geometry"/>
                </mxCell>
                <mxCell id="108" value="add_key_flag" style="whiteSpace=wrap;html=1;rounded=1;fontFamily=Inter;fontSource=https%3A%2F%2Ffonts.googleapis.com%2Fcss%3Ffamily%3DInter;strokeColor=#6c8ebf;fillColor=#dae8fc;" parent="9WSpmLzHRRsmoLOSvqGu-1" vertex="1">
                    <mxGeometry x="430" y="730" width="120" height="35" as="geometry"/>
                </mxCell>
                <mxCell id="114" style="edgeStyle=orthogonalEdgeStyle;rounded=0;orthogonalLoop=1;jettySize=auto;html=1;exitX=0;exitY=0.5;exitDx=0;exitDy=0;" edge="1" parent="9WSpmLzHRRsmoLOSvqGu-1" source="113" target="58">
                    <mxGeometry relative="1" as="geometry"/>
                </mxCell>
                <mxCell id="115" value="TRUE" style="edgeLabel;html=1;align=center;verticalAlign=middle;resizable=0;points=[];" vertex="1" connectable="0" parent="114">
                    <mxGeometry x="-0.7512" y="2" relative="1" as="geometry">
                        <mxPoint y="-2" as="offset"/>
                    </mxGeometry>
                </mxCell>
                <mxCell id="120" style="edgeStyle=orthogonalEdgeStyle;rounded=0;orthogonalLoop=1;jettySize=auto;html=1;entryX=0.5;entryY=0;entryDx=0;entryDy=0;" edge="1" parent="9WSpmLzHRRsmoLOSvqGu-1" source="113" target="118">
                    <mxGeometry relative="1" as="geometry"/>
                </mxCell>
                <mxCell id="122" value="FALSE" style="edgeLabel;html=1;align=center;verticalAlign=middle;resizable=0;points=[];" vertex="1" connectable="0" parent="120">
                    <mxGeometry x="-0.56" relative="1" as="geometry">
                        <mxPoint as="offset"/>
                    </mxGeometry>
                </mxCell>
                <mxCell id="113" value="last_key != None" style="rhombus;whiteSpace=wrap;html=1;rounded=1;fontFamily=Inter;fontSource=https%3A%2F%2Ffonts.googleapis.com%2Fcss%3Ffamily%3DInter;strokeColor=#6c8ebf;fillColor=#dae8fc;" vertex="1" parent="9WSpmLzHRRsmoLOSvqGu-1">
                    <mxGeometry x="680" y="350" width="80" height="80" as="geometry"/>
                </mxCell>
                <mxCell id="121" style="edgeStyle=orthogonalEdgeStyle;rounded=0;orthogonalLoop=1;jettySize=auto;html=1;" edge="1" parent="9WSpmLzHRRsmoLOSvqGu-1" source="118" target="119">
                    <mxGeometry relative="1" as="geometry"/>
                </mxCell>
                <mxCell id="118" value="add_key_flag" style="whiteSpace=wrap;html=1;rounded=1;fontFamily=Inter;fontSource=https%3A%2F%2Ffonts.googleapis.com%2Fcss%3Ffamily%3DInter;strokeColor=#6c8ebf;fillColor=#dae8fc;" vertex="1" parent="9WSpmLzHRRsmoLOSvqGu-1">
                    <mxGeometry x="810" y="430" width="120" height="35" as="geometry"/>
                </mxCell>
                <mxCell id="119" value="remove_key_flag" style="whiteSpace=wrap;html=1;rounded=1;fontFamily=Inter;fontSource=https%3A%2F%2Ffonts.googleapis.com%2Fcss%3Ffamily%3DInter;strokeColor=#6c8ebf;fillColor=#dae8fc;" vertex="1" parent="9WSpmLzHRRsmoLOSvqGu-1">
                    <mxGeometry x="810" y="495" width="120" height="35" as="geometry"/>
                </mxCell>
            </root>
        </mxGraphModel>
    </diagram>
    <diagram name="ui" id="U3bnbThII9YhZE0fmyeJ">
        &#xa;        &#xa;        &#xa;&#xa;&#xa;
        <mxGraphModel dx="1838" dy="819" grid="1" gridSize="10" guides="1" tooltips="1" connect="1" arrows="1" fold="1" page="1" pageScale="1" pageWidth="1654" pageHeight="1169" math="0" shadow="1">
            &#xa;            &#xa;            &#xa;&#xa;&#xa;
            <root>
                &#xa;                &#xa;                &#xa;&#xa;&#xa;
                <mxCell id="IrCPyjXqcjIIefbZYKyj-0"/>
                &#xa;                &#xa;                &#xa;&#xa;&#xa;
                <mxCell id="IrCPyjXqcjIIefbZYKyj-1" parent="IrCPyjXqcjIIefbZYKyj-0"/>
                &#xa;                &#xa;                &#xa;&#xa;&#xa;
                <mxCell id="Ghl2NQ6TUPHqSNO9Oq-B-2" value="" style="rounded=0;whiteSpace=wrap;html=1;" vertex="1" parent="IrCPyjXqcjIIefbZYKyj-1">
                    &#xa;                    &#xa;                    &#xa;&#xa;&#xa;
                    <mxGeometry x="310" y="130" width="400" height="480" as="geometry"/>
                    &#xa;                    &#xa;                    &#xa;&#xa;&#xa;
                </mxCell>
                &#xa;                &#xa;                &#xa;&#xa;&#xa;
                <mxCell id="Ghl2NQ6TUPHqSNO9Oq-B-3" value="" style="rounded=0;whiteSpace=wrap;html=1;" vertex="1" parent="IrCPyjXqcjIIefbZYKyj-1">
                    &#xa;                    &#xa;                    &#xa;&#xa;&#xa;
                    <mxGeometry x="320" y="140" width="380" height="460" as="geometry"/>
                    &#xa;                    &#xa;                    &#xa;&#xa;&#xa;
                </mxCell>
                &#xa;                &#xa;                &#xa;&#xa;&#xa;
                <mxCell id="Ghl2NQ6TUPHqSNO9Oq-B-4" value="" style="whiteSpace=wrap;html=1;aspect=fixed;" vertex="1" parent="IrCPyjXqcjIIefbZYKyj-1">
                    &#xa;                    &#xa;                    &#xa;&#xa;&#xa;
                    <mxGeometry x="340" y="160" width="100" height="100" as="geometry"/>
                    &#xa;                    &#xa;                    &#xa;&#xa;&#xa;
                </mxCell>
                &#xa;                &#xa;                &#xa;&#xa;&#xa;
                <mxCell id="Ghl2NQ6TUPHqSNO9Oq-B-5" value="" style="whiteSpace=wrap;html=1;aspect=fixed;" vertex="1" parent="IrCPyjXqcjIIefbZYKyj-1">
                    &#xa;                    &#xa;                    &#xa;&#xa;&#xa;
                    <mxGeometry x="450" y="160" width="100" height="100" as="geometry"/>
                    &#xa;                    &#xa;                    &#xa;&#xa;&#xa;
                </mxCell>
                &#xa;                &#xa;                &#xa;&#xa;&#xa;
                <mxCell id="Ghl2NQ6TUPHqSNO9Oq-B-6" value="" style="whiteSpace=wrap;html=1;aspect=fixed;" vertex="1" parent="IrCPyjXqcjIIefbZYKyj-1">
                    &#xa;                    &#xa;                    &#xa;&#xa;&#xa;
                    <mxGeometry x="560" y="160" width="100" height="100" as="geometry"/>
                    &#xa;                    &#xa;                    &#xa;&#xa;&#xa;
                </mxCell>
                &#xa;                &#xa;                &#xa;&#xa;&#xa;
            </root>
            &#xa;            &#xa;            &#xa;&#xa;&#xa;
        </mxGraphModel>
        &#xa;        &#xa;        &#xa;&#xa;&#xa;
    </diagram>
</mxfile>